<?xml version="1.0" encoding="UTF-8" standalone="no"?>
<svg
   xmlns:dc="http://purl.org/dc/elements/1.1/"
   xmlns:cc="http://creativecommons.org/ns#"
   xmlns:rdf="http://www.w3.org/1999/02/22-rdf-syntax-ns#"
   xmlns:svg="http://www.w3.org/2000/svg"
   xmlns="http://www.w3.org/2000/svg"
   xmlns:xlink="http://www.w3.org/1999/xlink"
   xmlns:sodipodi="http://sodipodi.sourceforge.net/DTD/sodipodi-0.dtd"
   xmlns:inkscape="http://www.inkscape.org/namespaces/inkscape"
   enable-background="new 0 0 536.543 303.57"
   viewBox="0 0 691.81221 133.89061"
   id="svg2"
   version="1.1"
   inkscape:version="0.91 r13725"
   sodipodi:docname="res5s.svg"
   width="691.81226"
   height="133.89061">
  <metadata
     id="metadata116">
    <rdf:RDF>
      <cc:Work
         rdf:about="">
        <dc:format>image/svg+xml</dc:format>
        <dc:type
           rdf:resource="http://purl.org/dc/dcmitype/StillImage" />
        <dc:title></dc:title>
      </cc:Work>
    </rdf:RDF>
  </metadata>
  <defs
     id="defs114">
     <linearGradient
     xlink:href="#bandblack"
     id="bandblack"
     x1="0"
     x2="100"
     y1="0"
     y2="0"
     gradientTransform="matrix(0,1,-1,0,94.127399,16.122099)"
     gradientUnits="userSpaceOnUse">
     <stop
      offset="0"
      stop-color="#010205"
      id="stop415" />
     <stop
      offset="0.06823"
      stop-color="#141518"
      id="stop417" />
     <stop
      offset=".1261"
      stop-color="#28282A"
      id="stop419" />
     <stop
      offset=".1924"
      stop-color="#363638"
      id="stop421" />
     <stop
      offset="0.35766771"
      stop-color="#59585b"
      id="stop423" />
     <stop
      offset="0.51883465"
      stop-color="#414042"
      id="stop425" />
     <stop
      offset="1"
      stop-color="#010205"
      id="stop427" />
     </linearGradient>
     <linearGradient
     xlink:href="#bandbrown"
     id="bandbrown"
     x1="0"
     x2="100"
     y1="0"
     y2="0"
     gradientTransform="matrix(0,1,-1,0,94.127399,16.122099)"
     gradientUnits="userSpaceOnUse">
     <stop
     offset="0"
       stop-color="#4f331b"
       id="stop439" />
     <stop
     offset="0.15324098"
     stop-color="#7d4b29"
       id="stop4268" />
     <stop
       offset="0.39443403"
       stop-color="#be6a3a"
       id="stop4334" />
     <stop
       offset=".5538"
       stop-color="#914B29"
       id="stop441" />
     <stop
       offset="0.66143942"
       stop-color="#8E4A28"
       id="stop443" />
     <stop
       offset="0.75272119"
       stop-color="#864526"
       id="stop445" />
     <stop
       offset="0.80239999"
       stop-color="#773D22"
       id="stop447" />
     <stop
       offset="0.85163939"
       stop-color="#62331C"
       id="stop449" />
     <stop
       offset="0.90869999"
       stop-color="#472514"
       id="stop451" />
     <stop
       offset="1"
       stop-color="#26140B"
       id="stop455" />
     </linearGradient>
     <linearGradient
        id="bandred"
        x1="0"
        x2="100"
        y1="0"
        y2="0"
        gradientTransform="matrix(0,1,-1,0,94.127399,16.122099)"
        gradientUnits="userSpaceOnUse">
       <stop
          offset="0"
          stop-color="#781600"
          id="stop4280" />
       <stop
          offset="0.04320988"
          stop-color="#a02200"
             id="stop4282" />
       <stop
          offset="0.1238732"
          stop-color="#aa3400"
             id="stop4284" />
       <stop
          offset="0.19400989"
          stop-color="#c81e00"
             id="stop4286" />
       <stop
          offset="0.26893705"
          stop-color="#db2800"
             id="stop4288" />
       <stop
          id="stop4290"
          offset="0.40367669"
          stop-color="#ff532d" />
       <stop
          id="stop4292"
          offset=".736"
          stop-color="#db2800" />
       <stop
          id="stop4294"
          offset="0.80563581"
          stop-color="#c82100" />
       <stop
          id="stop4296"
          offset="0.85881728"
          stop-color="#aa3400" />
       <stop
          id="stop4298"
          offset="0.92866296"
          stop-color="#a02600" />
       <stop
          id="stop4300"
          offset="1"
          stop-color="#781600" />
     </linearGradient>
     <linearGradient
     id="bandorange"
     x1="0"
     x2="100"
     y1="0"
     y2="0"
     gradientTransform="matrix(0,1,-1,0,94.127399,16.122099)"
     gradientUnits="userSpaceOnUse">
     <stop
       stop-color="#E74E00"
       offset="0"
       id="stop348" />
     <stop
       stop-color="#E75800"
       offset="0.07129636"
       id="stop350" />
     <stop
       stop-color="#E76900"
       offset="0.1238732"
       id="stop352" />
     <stop
       stop-color="#E77400"
       offset="0.19400989"
       id="stop354" />
     <stop
       stop-color="#E77B00"
       offset="0.26893705"
       id="stop356" />
     <stop
       stop-color="#ffa841"
       offset="0.40988156"
       id="stop358" />
     <stop
       stop-color="#E77B00"
       offset=".736"
       id="stop360" />
     <stop
       stop-color="#E77400"
       offset="0.80563581"
       id="stop362" />
     <stop
       stop-color="#E76900"
       offset="0.85881728"
       id="stop364" />
     <stop
       stop-color="#E75800"
       offset="0.92866296"
       id="stop366" />
     <stop
       stop-color="#E74C00"
       offset="1"
       id="stop368" />
     </linearGradient>
     <linearGradient
        id="bandyellow"
        x1="0"
        x2="100"
        y1="0"
        y2="0"
        gradientTransform="matrix(0,1,-1,0,94.127399,16.122099)"
        gradientUnits="userSpaceOnUse">
       <stop
          id="stop4312"
          offset="0"
          stop-color="#c58b00" />
       <stop
          id="stop4316"
          offset="0.07919733"
          stop-color="#f4c900" />
       <stop
          id="stop4318"
          offset="0.15890741"
          stop-color="#e7db00" />
       <stop
          id="stop4320"
          offset="0.26255479"
          stop-color="#faff2f" />
       <stop
          id="stop4322"
          offset="0.43100989"
          stop-color="#fcff94" />
       <stop
          id="stop4324"
          offset=".736"
          stop-color="#faff2f" />
       <stop
          id="stop4326"
          offset="0.80563581"
          stop-color="#e7db00" />
       <stop
          id="stop4328"
          offset="0.85881728"
          stop-color="#f4c900" />
       <stop
          id="stop4330"
          offset="0.92866296"
          stop-color="#d4af00" />
       <stop
          id="stop4332"
          offset="1"
          stop-color="#ba8300" />
     </linearGradient>
     <linearGradient
        id="bandgreen"
        x1="0"
        x2="100"
        y1="0"
        y2="0"
        gradientTransform="matrix(0,1,-1,0,94.127399,16.122099)"
        gradientUnits="userSpaceOnUse">
       <stop
          stop-color="#008f1e"
          offset="0"
          id="stop4346" />
       <stop
          stop-color="#00ae00"
          offset="0.07919733"
          id="stop4348" />
       <stop
          stop-color="#05c900"
          offset="0.15890741"
          id="stop4350" />
       <stop
          stop-color="#09ff0f"
          offset="0.26255479"
          id="stop4352" />
       <stop
          stop-color="#94ff94"
          offset="0.44091088"
          id="stop4354" />
       <stop
          stop-color="#09ff0f"
          offset=".736"
          id="stop4356" />
       <stop
          stop-color="#05c900"
          offset="0.84028929"
          id="stop4358" />
       <stop
          stop-color="#00ae00"
          offset="0.92866296"
          id="stop4362" />
       <stop
          stop-color="#008f1e"
          offset="1"
          id="stop4364" />
     </linearGradient>
     <linearGradient
        id="bandblue"
        x1="0"
        x2="100"
        y1="0"
        y2="0"
        gradientTransform="matrix(0,1,-1,0,94.127399,16.122099)"
        gradientUnits="userSpaceOnUse">
       <stop
          id="stop4368"
          offset="0"
          stop-color="#08008f" />
       <stop
          id="stop4374"
          offset="0.26255479"
          stop-color="#0909ff" />
       <stop
          id="stop4376"
          offset="0.44091088"
          stop-color="#51bfff" />
       <stop
          id="stop4378"
          offset="0.75116247"
          stop-color="#0909ff" />
       <stop
          id="stop4384"
          offset="1"
          stop-color="#08008f"
     />
     </linearGradient>
     <linearGradient
        id="bandviolet"
        x1="0"
        x2="100"
        y1="0"
        y2="0"
        gradientTransform="matrix(0,1,-1,0,94.127399,16.122099)"
        gradientUnits="userSpaceOnUse">
       <stop
          stop-color="#78008f"
          offset="0"
          id="stop4388" />
       <stop
          stop-color="#ce00e0"
          offset="0.26255479"
          id="stop4390" />
       <stop
          stop-color="#da51ff"
          offset="0.43700415"
          id="stop4392" />
       <stop
          stop-color="#ce00e0"
          offset="0.75116247"
          id="stop4394" />
       <stop
          stop-color="#67007b"
          offset="1"
          id="stop4396" />
     </linearGradient>
     <linearGradient
        id="bandgrey"
        x1="0"
        x2="100"
        y1="0"
        y2="0"
        gradientTransform="matrix(0,1,-1,0,94.127399,16.122099)"
        gradientUnits="userSpaceOnUse">
       <stop
          id="stop4400"
          offset="0"
          stop-color="#484848" />
       <stop
          id="stop4402"
          offset="0.24045391"
          stop-color="#8d8d8d" />
       <stop
          id="stop4404"
          offset="0.43700415"
          stop-color="#c8c8c8" />
       <stop
          id="stop4406"
          offset="0.75116247"
          stop-color="#808080" />
       <stop
          id="stop4408"
          offset="1"
          stop-color="#3e3e3e" />
     </linearGradient>
    <linearGradient
     id="bandwhite"
     x1="0"
     x2="100"
     y1="0"
     y2="0"
     gradientTransform="matrix(0,1,-1,0,94.127399,16.122099)"
     gradientUnits="userSpaceOnUse">
    <stop
       stop-color="#BCBEC0"
       offset="0"
       id="stop398" />
    <stop
       stop-color="#CECFD0"
       offset=".033672"
       id="stop400" />
    <stop
       stop-color="#DFDFE0"
       offset=".080329"
       id="stop402" />
    <stop
       stop-color="#EAEBEB"
       offset=".1384"
       id="stop404" />
    <stop
       stop-color="#F1F1F1"
       offset=".2199"
       id="stop406" />
    <stop
       stop-color="#F3F3F3"
       offset=".4462"
       id="stop408" />
    <stop
       stop-color="#A7A9AC"
       offset="1"
       id="stop410" />
    </linearGradient>
    <linearGradient
       id="bandgold"
       x1="0"
       x2="100"
       y1="0"
       y2="0"
       gradientTransform="matrix(0,1,-1,0,94.127399,16.122099)"
       gradientUnits="userSpaceOnUse">
      <stop
         stop-color="#9e7d23"
         offset="0"
         id="stop4412" />
      <stop
         id="stop4440"
         offset="0.12988785"
         stop-color="#eecb6f" />
      <stop
         stop-color="#e8ae20"
         offset="0.24045391"
         id="stop4414" />
      <stop

         stop-color="#f8e863"
         offset="0.43700415"
         id="stop4416" />
      <stop

         stop-color="#e8ae20"
         offset="0.75116247"
         id="stop4418" />
      <stop
         id="stop4438"
         offset="0.86203629"
         stop-color="#eecb6f" />
      <stop
         stop-color="#9e7d23"
         offset="1"
         id="stop4420" />
    </linearGradient>
    <linearGradient
       id="bandsilver"
       x1="0"
       x2="100"
       y1="0"
       y2="0"
       gradientTransform="matrix(0,1,-1,0,94.127399,16.122099)"
       gradientUnits="userSpaceOnUse">
      <stop
         id="stop4424"
         offset="0"
         stop-color="#525252" />
      <stop
         stop-color="#969696"
         offset="0.13964748"
         id="stop4434" />
      <stop
         id="stop4426"
         offset="0.24045391"
         stop-color="#8e8e8e" />
      <stop
         id="stop4428"
         offset="0.43700415"
         stop-color="#fdfdfd" />
      <stop
         id="stop4430"
         offset="0.75116247"
         stop-color="#8e8e8e" />
      <stop

         stop-color="#a3a3a3"
         offset="0.86239088"
         id="stop4436" />
      <stop
         id="stop4432"
         offset="1"
         stop-color="#525252" />
    </linearGradient>
    <linearGradient
       gradientUnits="userSpaceOnUse"
       gradientTransform="matrix(0,1,-1,0,457.20033,100.7782)"
       y2="220.71001"
       y1="220.71001"
       x2="141.00999"
       x1="66.874001"
       id="resbodygrad">
      <stop
         id="stop4239"
         offset="0"
         stop-color="#8B5E3C" />
      <stop
         id="stop4241"
         offset=".1828"
         stop-color="#C8A063" />
      <stop
         id="stop4243"
         offset="0.47190946"
         stop-color="#C8A063" />
      <stop
         id="stop4245"
         offset=".9731"
         stop-color="#8B5E3C" />
    </linearGradient>
    <linearGradient
       id="ar"
       x1="15.549"
       x2="15.549"
       y1="77.294998"
       y2="82.971001"
       gradientTransform="translate(218.10033,124.4832)"
       gradientUnits="userSpaceOnUse">
      <stop
         stop-color="#fff"
         offset="0"
         id="stop330" />
      <stop
         offset="1"
         id="stop332" />
    </linearGradient>
    <linearGradient
       inkscape:collect="always"
       xlink:href="#resbodygrad"
       id="linearGradient4335"
       x1="173.661"
       y1="106.34743"
       x2="173.661"
       y2="136.14059"
       gradientUnits="userSpaceOnUse"
       gradientTransform="matrix(4.1640626,0,0,4.1640626,-379.15999,-434.0458)" />
    <linearGradient
       inkscape:collect="always"
       xlink:href="#ar"
       id="linearGradient4300"
       x1="220.79234"
       y1="118.88156"
       x2="220.79234"
       y2="121.66825"
       gradientUnits="userSpaceOnUse"
       gradientTransform="matrix(1.973618,0,0,4.052147,-0.01187052,-422.09234)" />
  </defs>
  <sodipodi:namedview
     pagecolor="#ffffff"
     bordercolor="#666666"
     borderopacity="1"
     objecttolerance="10"
     gridtolerance="10"
     guidetolerance="10"
     inkscape:pageopacity="0"
     inkscape:pageshadow="2"
     inkscape:window-width="1478"
     inkscape:window-height="790"
     id="namedview112"
     showgrid="false"
     inkscape:zoom="2.6375476"
     inkscape:cx="383.97682"
     inkscape:cy="55.768919"
     inkscape:window-x="17"
     inkscape:window-y="161"
     inkscape:window-maximized="0"
     inkscape:current-layer="svg2"
     fit-margin-top="0"
     fit-margin-left="0"
     fit-margin-right="0"
     fit-margin-bottom="0" />
  <path
     d="m 4.3221895,71.175579 687.4900605,0 -4.263,-11.086734 -687.549280517578,0 L 4.3340395,71.175579 Z"
     id="reswire"
     style="fill:url(#linearGradient4300);fill-opacity:1;fill-rule:nonzero" />
  <path
     d="m 412.49489,14.548658 c 4.04747,0 7.49534,-0.599623 10.94317,-1.199249 3.14803,-0.899438 5.39662,-1.798874 9.14429,-3.297938 3.59773,-2.3984999 7.3454,-5.6964379 12.44222,-7.4953119 4.94688,-1.79887424 10.1936,-2.9981272 16.33976,-2.39850024 5.84635,0.749531 13.34166,1.49906124 19.03811,5.69643824 5.09682,3.4478424 10.1936,10.9431559 13.64147,16.6395939 3.14803,5.846343 3.14803,10.943156 6.29606,16.939407 2.69829,5.696436 4.94691,12.442217 10.19363,16.789499 4.94688,3.897562 11.39288,6.296064 19.93753,7.1955 l 0,7.195499 c -8.54465,0.749534 -14.99065,3.148034 -19.93753,7.195503 -5.24672,3.897561 -7.49534,10.643343 -10.19363,16.789499 -3.14803,5.846342 -3.14803,10.943152 -6.29606,16.939402 -3.44787,5.39663 -8.54465,12.44223 -13.64147,16.4897 -5.69645,3.59774 -13.19176,4.94692 -19.03811,5.84636 -6.14616,0.15001 -11.39288,-0.89944 -16.33976,-2.54842 -5.09682,-2.09869 -8.84449,-5.69643 -12.44222,-7.34541 -3.74767,-1.79887 -5.99626,-2.69831 -9.14429,-3.29793 -3.44783,-0.74953 -6.8957,-1.34916 -10.94317,-1.19925 l -135.66514,0 c -3.89757,-0.1499 -7.4953,0.44972 -10.79324,1.19925 -3.44786,0.59962 -5.99625,1.49906 -9.29418,3.29793 -3.59776,1.64898 -7.94504,5.24672 -12.44222,7.34541 -4.79701,1.64898 -10.79327,2.69832 -16.33979,2.54842 -6.14616,-0.89944 -13.64146,-2.24862 -19.03808,-5.84636 -5.69646,-4.04747 -10.19363,-11.09307 -13.49157,-16.4897 -3.59776,-5.99625 -3.59776,-11.09306 -6.29606,-16.939402 C 186.28639,88.452442 183.43816,81.70666 178.79108,77.809099 173.69426,73.76163 167.2483,71.36313 158.85355,70.613596 l 0,-7.195499 c 8.39475,-0.899436 14.84071,-3.297938 19.93753,-7.1955 4.64708,-4.347282 7.49531,-11.093063 10.34353,-16.789499 2.6983,-5.996251 2.6983,-11.093064 6.29606,-16.939407 3.29794,-5.696438 7.79511,-13.1917515 13.49157,-16.6395939 5.39662,-4.197377 12.89192,-4.94690724 19.03808,-5.69643824 5.54652,-0.59962696 11.54278,0.599626 16.33979,2.39850024 4.49718,1.798874 8.84446,5.096812 12.44222,7.4953119 3.29793,1.499064 5.84632,2.3985 9.29418,3.297938 3.29794,0.599626 6.89567,1.199249 10.79324,1.199249 l 135.66514,0 z"
     id="resbody"
     style="fill:url(#linearGradient4335);fill-opacity:1;fill-rule:nonzero" />
     <!-- bands -->
       <path
          style="fill:url(#bandblack);fill-opacity:1;fill-rule:evenodd"
          d="M 230.05859 0.015625 C 229.35445 0.036705675 228.65425 0.083249755 227.96094 0.15820312 C 224.18719 0.61841589 219.90696 1.0854416 215.91406 2.34375 C 215.463 21.488515 215.3418 41.500016 215.3418 62.458984 C 215.17808 84.659816 215.47273 107.55033 216.19336 131.37109 C 220.10663 132.62237 224.27442 133.33551 227.96094 133.875 C 232.24958 133.9909 236.80111 133.38462 240.86523 132.34375 C 240.19759 108.1869 239.76399 84.902472 239.92969 62.458984 C 239.92969 41.13324 240.06095 20.79542 240.5332 1.3457031 C 237.21668 0.45087046 233.58986 -0.090093395 230.05859 0.015625 z "
          id="resband1" />
       <path
          style="fill:url(#bandbrown);fill-opacity:1;fill-rule:evenodd"
          d="M 255.36133 9.109375 C 254.57166 32.524904 254.37695 57.252757 254.37695 83.478516 C 254.27665 97.08059 254.35773 110.95582 254.59375 125.13086 C 255.33193 124.69741 256.05458 124.29563 256.74219 123.98047 C 260.04012 122.1816 262.58925 121.28126 266.03711 120.68164 C 269.33505 119.93211 272.93251 119.33252 276.83008 119.48242 L 279.14844 119.48242 C 278.95938 107.2522 278.87601 95.24627 278.96289 83.478516 C 278.96289 59.281799 279.12779 36.344331 279.77344 14.548828 L 276.83008 14.548828 C 272.93251 14.548828 269.33505 13.949235 266.03711 13.349609 C 262.58925 12.450171 260.04012 11.549845 256.74219 10.050781 C 256.30335 9.7582236 255.82138 9.4243436 255.36133 9.109375 z "
          id="resband2" />
       <path
          style="fill:url(#bandred);fill-opacity:1;fill-rule:evenodd"
          d="M 274.93359 14.498047 C 274.71714 28.994027 274.64453 43.957971 274.64453 59.457031 C 274.50135 78.873919 274.7158 98.831999 275.25195 119.46484 C 275.77287 119.4589 276.29798 119.46196 276.83008 119.48242 L 299.92578 119.48242 C 299.41202 98.854253 299.08949 78.816992 299.23242 59.457031 C 299.23242 43.97671 299.30599 29.029004 299.52344 14.548828 L 276.83008 14.548828 C 276.18876 14.548828 275.55868 14.527844 274.93359 14.498047 z "
          id="resband3" />
       <path
          style="fill:url(#bandorange);fill-opacity:1;fill-rule:evenodd"
          d="M 294.26367 14.548828 C 293.58077 36.79326 293.41211 60.222463 293.41211 84.978516 C 293.3287 96.288736 293.36569 107.78252 293.51562 119.48242 L 318.1582 119.48242 C 317.9857 107.769 317.91471 96.266742 317.99805 84.978516 C 317.99805 60.222122 318.17387 36.794485 318.85742 14.548828 L 294.26367 14.548828 z "
          id="resband4" />
       <path
          style="fill:url(#bandyellow);fill-opacity:1;fill-rule:evenodd"
          d="M 313.99023 14.548828 C 313.75604 29.495049 313.67969 44.94078 313.67969 60.957031 C 313.53992 79.909855 313.73815 99.374751 314.24609 119.48242 L 338.92383 119.48242 C 338.43283 99.387312 338.12812 79.84588 338.26758 60.957031 C 338.26758 44.941252 338.34425 29.495215 338.58008 14.548828 L 313.99023 14.548828 z "
          id="resband5" />
       <path
          style="fill:url(#bandgreen);fill-opacity:1;fill-rule:evenodd"
          d="M 334.07617 14.548828 C 333.37366 37.01797 333.19727 60.693944 333.19727 85.730469 C 333.11564 96.800065 333.14905 108.0402 333.29102 119.48242 L 357.93164 119.48242 C 357.76721 108.02739 357.70359 96.778389 357.78516 85.730469 C 357.78516 60.694422 357.96495 37.018548 358.66797 14.548828 L 334.07617 14.548828 z "
          id="resband6" />
       <path
          style="fill:url(#bandblue);fill-opacity:1;fill-rule:evenodd"
          d="M 353.78711 14.548828 C 353.54338 29.727291 353.4668 45.425014 353.4668 61.708984 C 353.32876 80.427227 353.51775 99.639557 354.01172 119.48242 L 378.69336 119.48242 C 378.21366 99.653481 377.91502 80.362064 378.05273 61.708984 C 378.05273 45.425825 378.1316 29.727179 378.37695 14.548828 L 353.78711 14.548828 z "
          id="resband7" />
       <path
          style="fill:url(#bandviolet);fill-opacity:1;fill-rule:evenodd"
          d="M 374.63672 14.548828 C 373.91429 37.241581 373.73437 61.164127 373.73438 86.480469 C 373.65454 97.3062 373.68621 108.30094 373.82031 119.48242 L 398.45703 119.48242 C 398.30057 108.28707 398.24053 97.286501 398.32031 86.480469 C 398.32031 61.164758 398.50764 37.242043 399.23047 14.548828 L 374.63672 14.548828 z "
          id="resband8" />
       <path
          style="fill:url(#bandgrey);fill-opacity:1;fill-rule:evenodd"
          d="M 418.93164 14.066406 C 416.90391 14.344818 414.80028 14.548828 412.49414 14.548828 L 394.33594 14.548828 C 394.08243 29.959191 394.00195 45.907044 394.00195 62.458984 C 393.86565 80.942707 394.04717 99.903851 394.52734 119.48242 L 412.49414 119.48242 C 414.91056 119.39292 417.10413 119.58903 419.2207 119.90625 C 418.74589 100.19277 418.45093 81.009679 418.58789 62.458984 C 418.58789 45.736342 418.67011 29.624816 418.93164 14.066406 z "
          id="resband9" />
       <path
          style="fill:url(#bandwhite);fill-opacity:1;fill-rule:evenodd"
          d="M 438.98828 5.6015625 C 436.6689 7.08764 434.59677 8.7076154 432.58203 10.050781 C 428.83436 11.549845 426.58553 12.450171 423.4375 13.349609 C 420.46853 13.865956 417.49836 14.380206 414.14648 14.513672 C 413.65333 34.295227 413.51953 54.994297 413.51953 76.722656 C 413.41665 90.674037 413.5012 104.90919 413.75195 119.46484 C 417.26587 119.46608 420.35295 120.01109 423.4375 120.68164 C 426.58553 121.28126 428.83436 122.1816 432.58203 123.98047 C 434.4798 124.85029 436.42676 126.26269 438.58398 127.71094 C 438.20309 110.26843 437.98348 93.245869 438.10547 76.722656 C 438.10547 51.709179 438.28685 28.05322 438.98828 5.6015625 z "
          id="resband10" />
       <path
          style="fill:url(#bandsilver);fill-opacity:1;fill-rule:evenodd"
          d="M 459.09961 0.015625 C 455.87101 -0.076183878 452.89328 0.33134884 450.05664 1.0234375 C 449.6643 19.204894 449.55273 38.149873 449.55273 57.955078 C 449.37538 82.006027 449.74202 106.88557 450.59961 132.86133 C 453.92846 133.57876 457.46528 133.97019 461.36523 133.875 C 465.54228 133.23238 470.5532 132.34182 475.15625 130.58398 C 474.44564 105.4527 473.96677 81.239544 474.13867 57.955078 C 474.13867 38.799157 474.24813 20.450083 474.61133 2.8144531 C 470.16175 1.1871594 465.37588 0.67238827 461.36523 0.15820312 C 460.59696 0.083249755 459.84094 0.036705675 459.09961 0.015625 z "
          id="resband11" />
       <path
          style="fill:url(#bandgold);fill-opacity:1;fill-rule:evenodd"
          d="M 465.57422 0.71679688 C 465.3797 18.695388 465.31641 37.241198 465.31641 56.410156 C 465.17535 81.22413 465.39158 106.75497 465.91211 133.10352 C 470.77895 132.17652 476.10255 130.74299 480.40234 128.02734 C 483.87964 125.26597 487.34323 121.11183 490.29688 117.03516 C 489.97221 96.335499 489.79033 76.09067 489.90234 56.410156 C 489.90234 42.728238 489.94275 29.39174 490.0332 16.324219 C 487.138 12.191395 483.77559 8.1354127 480.40234 5.8535156 C 475.9981 2.6082908 470.53559 1.4334745 465.57422 0.71679688 z "
          id="resband12" />
</svg>
